<svg width="26" height="23" viewBox="0 0 26 23" fill="none" xmlns="http://www.w3.org/2000/svg">
<path fill-rule="evenodd" clip-rule="evenodd" d="M-4.82892e-07 11.0472C-5.01184e-07 10.6287 0.166242 10.2274 0.462155 9.93147C0.758068 9.63555 1.15941 9.46931 1.5779 9.46931L19.8594 9.46931L13.0839 2.69698C12.9372 2.55027 12.8208 2.3761 12.7414 2.18442C12.662 1.99274 12.6212 1.7873 12.6212 1.57982C12.6212 1.37235 12.662 1.16691 12.7414 0.975227C12.8208 0.783544 12.9372 0.60938 13.0839 0.462673C13.2306 0.315967 13.4048 0.199592 13.5965 0.120195C13.7882 0.0407995 13.9936 -6.54615e-05 14.2011 -6.54706e-05C14.4085 -6.54797e-05 14.614 0.0407995 14.8057 0.120195C14.9974 0.199592 15.1715 0.315967 15.3182 0.462673L24.7856 9.93006C24.9326 10.0766 25.0491 10.2508 25.1287 10.4425C25.2082 10.6342 25.2492 10.8397 25.2492 11.0472C25.2492 11.2548 25.2082 11.4603 25.1287 11.652C25.0491 11.8437 24.9326 12.0178 24.7856 12.1644L15.3182 21.6317C15.1715 21.7784 14.9974 21.8948 14.8057 21.9742C14.614 22.0536 14.4086 22.0945 14.2011 22.0945C13.9936 22.0945 13.7882 22.0536 13.5965 21.9742C13.4048 21.8948 13.2306 21.7784 13.0839 21.6317C12.7876 21.3355 12.6212 20.9336 12.6212 20.5146C12.6212 20.3071 12.6621 20.1017 12.7414 19.91C12.8208 19.7183 12.9372 19.5441 13.0839 19.3974L19.8594 12.6251L1.5779 12.6251C1.15941 12.6251 0.758068 12.4589 0.462155 12.1629C0.166242 11.867 -4.64599e-07 11.4657 -4.82892e-07 11.0472Z" fill="black"/>
</svg>
