<svg width="26" height="23" viewBox="0 0 26 23" fill="none" xmlns="http://www.w3.org/2000/svg">
<path fill-rule="evenodd" clip-rule="evenodd" d="M25.2493 11.0472C25.2493 10.6287 25.083 10.2274 24.7871 9.93147C24.4912 9.63555 24.0899 9.46931 23.6714 9.46931L5.38985 9.46931L12.1653 2.69698C12.3121 2.55027 12.4284 2.3761 12.5078 2.18442C12.5872 1.99274 12.6281 1.7873 12.6281 1.57982C12.6281 1.37235 12.5872 1.16691 12.5078 0.975227C12.4284 0.783544 12.3121 0.60938 12.1653 0.462673C12.0186 0.315967 11.8445 0.199592 11.6528 0.120195C11.4611 0.0407995 11.2557 -6.54615e-05 11.0482 -6.54706e-05C10.8407 -6.54797e-05 10.6353 0.0407995 10.4436 0.120195C10.2519 0.199592 10.0777 0.315967 9.93104 0.462673L0.463656 9.93006C0.316712 10.0766 0.200129 10.2508 0.120583 10.4425C0.0410371 10.6342 9.20447e-05 10.8397 9.20356e-05 11.0472C9.20266e-05 11.2548 0.0410371 11.4603 0.120583 11.652C0.200129 11.8437 0.316712 12.0178 0.463656 12.1644L9.93104 21.6317C10.0777 21.7784 10.2519 21.8948 10.4436 21.9742C10.6353 22.0536 10.8407 22.0945 11.0482 22.0945C11.2557 22.0945 11.4611 22.0536 11.6528 21.9742C11.8445 21.8948 12.0186 21.7784 12.1653 21.6317C12.4616 21.3355 12.6281 20.9336 12.6281 20.5146C12.6281 20.3071 12.5872 20.1017 12.5078 19.91C12.4284 19.7183 12.312 19.5441 12.1653 19.3974L5.38985 12.6251L23.6714 12.6251C24.0899 12.6251 24.4912 12.4589 24.7871 12.1629C25.083 11.867 25.2493 11.4657 25.2493 11.0472Z" fill="black"/>
</svg>
