<svg width="118" height="105" viewBox="0 0 118 105" fill="none" xmlns="http://www.w3.org/2000/svg">
<path d="M113.344 74.4385H35.0146L38.9475 66.5117L104.294 66.3946C106.504 66.3946 108.398 64.8327 108.793 62.672L117.842 12.5474C118.079 11.2328 117.724 9.87914 116.856 8.85087C116.427 8.34482 115.891 7.93717 115.287 7.65623C114.683 7.37528 114.024 7.22775 113.357 7.22388L30.2267 6.95054L29.5164 3.64448C29.0692 1.53589 27.1488 0 24.9653 0H4.64318C3.41173 0 2.23072 0.484077 1.35996 1.34574C0.489191 2.2074 0 3.37607 0 4.59465C0 5.81322 0.489191 6.98189 1.35996 7.84355C2.23072 8.70521 3.41173 9.18929 4.64318 9.18929H21.2034L24.3077 23.7932L31.9498 60.4072L22.111 76.2997C21.6001 76.9822 21.2923 77.7924 21.2226 78.6389C21.1529 79.4854 21.3239 80.3343 21.7164 81.0896C22.5056 82.6385 24.0972 83.6147 25.8598 83.6147H34.1202C32.3592 85.9293 31.408 88.7484 31.4105 91.6456C31.4105 99.0126 37.4612 105 44.906 105C52.3509 105 58.4015 99.0126 58.4015 91.6456C58.4015 88.743 57.4282 85.9186 55.6919 83.6147H76.8822C75.1212 85.9293 74.17 88.7484 74.1726 91.6456C74.1726 99.0126 80.2232 105 87.668 105C95.1129 105 101.164 99.0126 101.164 91.6456C101.164 88.743 100.19 85.9186 98.4539 83.6147H113.357C115.909 83.6147 118 81.5582 118 79.0201C117.992 77.8028 117.498 76.6379 116.626 75.7795C115.754 74.9212 114.574 74.4391 113.344 74.4385ZM32.1603 16.0097L107.898 16.257L100.48 57.3615L40.9863 57.4656L32.1603 16.0097ZM44.906 95.7587C42.6173 95.7587 40.7495 93.9104 40.7495 91.6456C40.7495 89.3808 42.6173 87.5325 44.906 87.5325C47.1947 87.5325 49.0625 89.3808 49.0625 91.6456C49.0625 92.7364 48.6246 93.7826 47.8451 94.554C47.0656 95.3253 46.0084 95.7587 44.906 95.7587ZM87.668 95.7587C85.3793 95.7587 83.5115 93.9104 83.5115 91.6456C83.5115 89.3808 85.3793 87.5325 87.668 87.5325C89.9567 87.5325 91.8245 89.3808 91.8245 91.6456C91.8245 92.7364 91.3866 93.7826 90.6071 94.554C89.8276 95.3253 88.7704 95.7587 87.668 95.7587Z" fill="black"/>
</svg>
