<svg width="123" height="87" viewBox="0 0 123 87" fill="none" xmlns="http://www.w3.org/2000/svg">
<path d="M84.158 58.1458C82.9405 58.1458 81.7729 58.6294 80.912 59.4903C80.0511 60.3511 79.5675 61.5187 79.5675 62.7362C79.5675 63.9537 80.0511 65.1213 80.912 65.9821C81.7729 66.843 82.9405 67.3266 84.158 67.3266H99.4594C100.677 67.3266 101.844 66.843 102.705 65.9821C103.566 65.1213 104.05 63.9537 104.05 62.7362C104.05 61.5187 103.566 60.3511 102.705 59.4903C101.844 58.6294 100.677 58.1458 99.4594 58.1458H84.158Z" fill="black"/>
<path d="M14.0263 0C10.3063 0 6.73867 1.47777 4.10822 4.10822C1.47777 6.73867 0 10.3063 0 14.0263V72.682C0 76.402 1.47777 79.9697 4.10822 82.6001C6.73867 85.2306 10.3063 86.7083 14.0263 86.7083H108.385C112.105 86.7083 115.673 85.2306 118.304 82.6001C120.934 79.9697 122.412 76.402 122.412 72.682V14.0263C122.412 10.3063 120.934 6.73867 118.304 4.10822C115.673 1.47777 112.105 0 108.385 0H14.0263ZM7.65073 72.682V33.1532H114.761V72.682C114.761 76.2013 111.905 79.0576 108.385 79.0576H14.0263C10.507 79.0576 7.65073 76.2013 7.65073 72.682ZM7.65073 25.5025V14.0263C7.65073 10.507 10.507 7.65073 14.0263 7.65073H108.385C111.905 7.65073 114.761 10.507 114.761 14.0263V25.5025H7.65073Z" fill="black"/>
</svg>
