<svg width="82" height="58" viewBox="0 0 82 58" fill="none" xmlns="http://www.w3.org/2000/svg">
<path d="M76.1429 0H5.85714C4.30373 0 2.81394 0.611069 1.71552 1.69878C0.61709 2.78649 0 4.26174 0 5.8V52.2C0 53.7383 0.61709 55.2135 1.71552 56.3012C2.81394 57.3889 4.30373 58 5.85714 58H76.1429C77.6963 58 79.1861 57.3889 80.2845 56.3012C81.3829 55.2135 82 53.7383 82 52.2V5.8C82 4.26174 81.3829 2.78649 80.2845 1.69878C79.1861 0.611069 77.6963 0 76.1429 0ZM69.7 5.8L41 25.462L12.3 5.8H69.7ZM5.85714 52.2V8.439L39.3307 31.378C39.8209 31.7148 40.4034 31.8952 41 31.8952C41.5966 31.8952 42.1791 31.7148 42.6693 31.378L76.1429 8.439V52.2H5.85714Z" fill="#6F232B"/>
</svg>
