<svg width="52" height="47" viewBox="0 0 52 47" fill="none" xmlns="http://www.w3.org/2000/svg">
<path d="M22.2288 3.90771C19.5859 1.81817 16.261 0.785018 12.8994 1.00878C9.53771 1.23254 6.37906 2.69725 4.03647 5.11864C-1.36438 10.6559 -1.34164 19.6611 4.08195 25.2212L24.1617 45.8183C24.9918 46.6711 26.3448 46.6711 27.1748 45.8183L47.1466 25.3406C49.7386 22.634 51.1807 19.0282 51.1701 15.2807C51.1595 11.5332 49.697 7.93561 47.0898 5.24371C45.8226 3.92228 44.302 2.86987 42.6189 2.14937C40.9358 1.42887 39.1247 1.05506 37.2938 1.05028C35.463 1.04551 33.65 1.40986 31.9631 2.12157C30.2763 2.83329 28.7502 3.87775 27.4762 5.19255L25.566 7.15391L23.633 5.16412C23.1949 4.71684 22.7277 4.29902 22.2345 3.9134L22.2288 3.90771ZM31.541 9.16075C32.2854 8.3891 33.1785 7.77629 34.1662 7.3593C35.154 6.94231 36.216 6.72979 37.2882 6.73457C38.3604 6.73936 39.4205 6.96134 40.4045 7.38712C41.3885 7.8129 42.2761 8.43366 43.0135 9.21192C46.2939 12.5775 46.2939 18.0409 43.0647 21.378L43.059 21.3837L25.6626 39.2236L8.15248 21.2587C6.57685 19.6271 5.69245 17.45 5.68398 15.1819C5.6755 12.9138 6.54361 10.7301 8.107 9.08684C8.85026 8.31729 9.74164 7.70619 10.7274 7.29039C11.7132 6.87459 12.773 6.66269 13.8428 6.66748C14.9127 6.67226 15.9705 6.89361 16.9525 7.31821C17.9346 7.7428 18.8205 8.36184 19.5568 9.13801L21.4897 11.1221C22.0195 11.6662 22.6528 12.0987 23.3524 12.3939C24.0521 12.6892 24.8037 12.8414 25.5631 12.8414C26.3225 12.8414 27.0742 12.6892 27.7738 12.3939C28.4734 12.0987 29.1068 11.6662 29.6365 11.1221L31.541 9.16075Z" fill="black"/>
</svg>
