<svg width="154" height="123" viewBox="0 0 154 123" fill="none" xmlns="http://www.w3.org/2000/svg">
<path d="M89.7971 54.5144C84.3542 49.5571 81.0596 42.6692 80.6068 35.3214L80.64 35.3003L80.5934 34.98C80.047 31.2227 80.3333 27.3912 81.4322 23.7584C82.5295 20.1304 84.4102 16.7897 86.9405 13.9734L86.9504 13.9637L86.9594 13.9548L86.968 13.9455C92.2349 8.20631 99.4972 4.71247 107.259 4.18255L107.259 4.18394L107.308 4.17889L107.308 4.17694C111.961 3.44964 116.718 3.75691 121.241 5.07716C125.771 6.39954 129.956 8.70573 133.498 11.832L133.506 11.8383L133.513 11.8443L133.516 11.8471C140.677 18.8014 144.937 28.2206 145.437 38.1993L145.437 38.1994L145.442 38.2915L145.442 38.2947L145.448 38.2944C146.775 48.4817 145.95 58.8323 143.027 68.6734L143.008 68.6681C140.565 76.4985 136.823 83.8594 131.94 90.4418C127.891 95.8587 123.045 100.629 117.57 104.59L117.271 104.789L117.263 104.794L117.255 104.8C113.102 107.802 108.721 110.474 104.152 112.791L103.853 112.928L87.8859 91.2714C93.3636 88.2673 97.999 83.9245 101.36 78.6423L101.36 78.6423L101.364 78.6352L101.409 78.5621C104.893 73.4168 106.789 67.357 106.861 61.1375L106.861 61.1375L106.861 61.1275L106.86 60.9816L106.855 60.4464L106.322 60.4873C103.313 60.7179 100.289 60.3084 97.4483 59.2858C94.6076 58.2631 92.014 56.6503 89.8377 54.5529L89.8359 54.5512L89.8057 54.5223L89.8058 54.5222L89.7971 54.5144ZM4.26218 42.7527C4.26213 42.7518 4.26209 42.7508 4.26204 42.7499L4.26178 42.7499C3.71997 38.9959 4.00847 35.1687 5.10686 31.5398C6.20493 27.9119 8.08548 24.5712 10.6151 21.7542L10.6249 21.7445L10.6339 21.7356L10.6426 21.7262C15.9081 15.9852 23.1711 12.491 30.933 11.9634L30.9332 11.9648L30.9828 11.9597L30.9826 11.9578C35.6359 11.2292 40.3928 11.5359 44.916 12.8562C49.4407 14.1769 53.6207 16.4796 57.1593 19.6008L57.1669 19.6086L57.1668 19.6087L57.176 19.6176C64.3486 26.5734 68.6152 36.0013 69.1127 45.9892L69.1122 45.9893L69.1171 46.0812L69.1173 46.0845L69.1231 46.0842C70.4509 56.2716 69.6253 66.6222 66.7021 76.4634L66.6836 76.4581C64.2419 84.2884 60.5015 91.6494 55.6196 98.232C51.5684 103.649 46.7219 108.419 41.2449 112.379L40.946 112.579L40.938 112.584L40.9303 112.59C36.7787 115.594 32.3977 118.266 27.8279 120.581L27.5281 120.718L11.5657 99.0607C17.0439 96.0537 21.6792 91.7078 25.039 86.4225L25.0391 86.4226L25.0433 86.4156L25.0881 86.3425C28.5716 81.1972 30.4676 75.1374 30.5401 68.9179L30.5402 68.9179L30.5401 68.9079L30.5389 68.762L30.5344 68.2267L30.0007 68.2677C26.9932 68.4986 23.9706 68.0892 21.1313 67.0663C18.292 66.0435 15.7001 64.4303 13.5259 62.3325L13.5239 62.3306L13.4936 62.3017L13.4937 62.3016L13.4848 62.2935C7.99057 57.2988 4.68151 50.337 4.27087 42.9186L4.28195 42.8893L4.26347 42.7616C4.26304 42.7586 4.26261 42.7557 4.26218 42.7527Z" stroke="#E55B69"/>
</svg>
