<svg width="132" height="104" viewBox="0 0 132 104" fill="none" xmlns="http://www.w3.org/2000/svg">
<path d="M9.42853 47.2898H65.9998V56.7183H9.42853V47.2898Z" fill="black"/>
<path d="M0 23.7185H47.1427V33.147H0V23.7185Z" fill="black"/>
<path d="M131.618 50.1468L117.475 17.1469C117.112 16.2987 116.508 15.5758 115.738 15.0679C114.968 14.56 114.066 14.2895 113.143 14.29H99.0001V4.86149C99.0001 3.61118 98.5034 2.41209 97.6193 1.528C96.7352 0.643898 95.5361 0.147217 94.2858 0.147217H18.8575V9.57576H89.5716V68.7681C87.4234 70.0155 85.5435 71.6758 84.0401 73.6533C82.5368 75.6308 81.4398 77.8863 80.8125 80.2898H51.188C50.0406 75.8459 47.3118 71.9729 43.5131 69.397C39.7144 66.8211 35.1067 65.719 30.5536 66.2973C26.0005 66.8756 21.8146 69.0947 18.7806 72.5385C15.7465 75.9823 14.0726 80.4144 14.0726 85.0041C14.0726 89.5938 15.7465 94.0259 18.7806 97.4697C21.8146 100.914 26.0005 103.133 30.5536 103.711C35.1067 104.289 39.7144 103.187 43.5131 100.611C47.3118 98.0352 50.0406 94.1623 51.188 89.7183H80.8125C81.838 93.7643 84.1833 97.3528 87.4774 99.9161C90.7715 102.479 94.8262 103.871 99.0001 103.871C103.174 103.871 107.229 102.479 110.523 99.9161C113.817 97.3528 116.162 93.7643 117.188 89.7183H127.286C128.536 89.7183 129.735 89.2217 130.619 88.3376C131.503 87.4535 132 86.2544 132 85.0041V52.0042C132 51.3655 131.87 50.7335 131.618 50.1468ZM33.0003 94.4326C31.1355 94.4326 29.3126 93.8796 27.7621 92.8436C26.2116 91.8076 25.0031 90.3351 24.2895 88.6122C23.5759 86.8894 23.3891 84.9936 23.7529 83.1647C24.1167 81.3357 25.0147 79.6557 26.3333 78.3371C27.6519 77.0185 29.3319 76.1205 31.1609 75.7567C32.9899 75.3929 34.8856 75.5796 36.6085 76.2932C38.3313 77.0069 39.8038 78.2153 40.8399 79.7659C41.8759 81.3164 42.4289 83.1393 42.4289 85.0041C42.4264 87.5039 41.4322 89.9007 39.6645 91.6683C37.8969 93.436 35.5002 94.4301 33.0003 94.4326ZM99.0001 23.7186H110.032L120.139 47.2899H99.0001V23.7186ZM99.0001 94.4326C97.1353 94.4326 95.3124 93.8796 93.7619 92.8436C92.2114 91.8076 91.0029 90.3351 90.2893 88.6122C89.5757 86.8894 89.3889 84.9936 89.7527 83.1647C90.1165 81.3357 91.0145 79.6557 92.3331 78.3371C93.6517 77.0185 95.3317 76.1205 97.1607 75.7567C98.9896 75.3929 100.885 75.5796 102.608 76.2932C104.331 77.0069 105.804 78.2153 106.84 79.7659C107.876 81.3164 108.429 83.1393 108.429 85.0041C108.426 87.5039 107.432 89.9007 105.664 91.6683C103.897 93.436 101.5 94.4301 99.0001 94.4326ZM122.571 80.2898H117.188C116.149 76.2517 113.8 72.6724 110.509 70.1129C107.217 67.5535 103.17 66.1586 99.0001 66.147V56.7185H122.571V80.2898Z" fill="black"/>
</svg>
